<svg width="46" height="46" viewBox="0 0 46 46" fill="none" xmlns="http://www.w3.org/2000/svg">
<path d="M9.01889 0.0114746C4.0639 0.0114746 0.00854492 4.06674 0.00854492 9.02182V36.9825C0.00854492 41.9375 4.06381 45.9914 9.01889 45.9914H36.9796C41.9346 45.9914 45.9884 41.9375 45.9884 36.9825V9.02182C45.9884 4.06683 41.9346 0.0114746 36.9796 0.0114746H9.01889ZM11.2851 7.59908C13.6609 7.59908 15.1243 9.15876 15.1695 11.2089C15.1695 13.2138 13.6608 14.8174 11.2392 14.8174H11.1946C8.86401 14.8174 7.35764 13.2139 7.35764 11.2089C7.35764 9.1588 8.90959 7.59908 11.2851 7.59908H11.2851ZM31.7588 17.1813C36.3279 17.1813 39.7531 20.1678 39.7531 26.5854V38.5661H32.8093V27.3887C32.8093 24.5799 31.8043 22.6636 29.2914 22.6636C27.373 22.6636 26.2296 23.9552 25.7275 25.2029C25.5441 25.6493 25.499 26.2727 25.499 26.8972V38.5661H18.5552C18.5552 38.5661 18.6463 19.6319 18.5552 17.6713H25.5005V20.6302C26.4232 19.2065 28.0738 17.1813 31.7588 17.1813V17.1813ZM7.76723 17.6729H14.7111V38.5661H7.76723V17.6729Z" fill="#989898"/>
</svg>
