<svg width="46" height="46" viewBox="0 0 46 46" fill="none" xmlns="http://www.w3.org/2000/svg">
<g clip-path="url(#clip0_104_47)">
<path d="M8.39932 0C3.74647 0 0 3.68324 0 8.25758V36.9662C0 41.5405 3.74647 45.2237 8.39932 45.2237H24.2262V27.5441H19.471V21.1788H24.2262V15.7407C24.2262 11.4682 27.0359 7.5453 33.5081 7.5453C36.1287 7.5453 38.0665 7.79263 38.0665 7.79263L37.9141 13.7367C37.9141 13.7367 35.9378 13.7184 33.7812 13.7184C31.4473 13.7184 31.073 14.7756 31.073 16.5308V21.1789H38.0995L37.7933 27.5441H31.073V45.2238H37.6007C42.2535 45.2238 46 41.5405 46 36.9662V8.25762C46 3.68329 42.2535 4.52237e-05 37.6007 4.52237e-05H8.39928L8.39932 0Z" fill="#989898"/>
</g>
<defs>
<clipPath id="clip0_104_47">
<rect width="46" height="45.2237" fill="white"/>
</clipPath>
</defs>
</svg>
