<svg width="50" height="50" viewBox="0 0 50 50" fill="none" xmlns="http://www.w3.org/2000/svg">
<path d="M39.577 41.6666C21.8041 41.6916 8.31452 28.0416 8.33327 10.4228C8.33327 9.27075 9.2666 8.33325 10.4166 8.33325H15.9166C16.9479 8.33325 17.8249 9.09159 17.977 10.1124C18.3397 12.5604 19.0519 14.9438 20.0916 17.1895L20.3062 17.652C20.4503 17.9632 20.4813 18.315 20.3939 18.6467C20.3064 18.9783 20.1059 19.269 19.827 19.4687C18.1229 20.6853 17.4729 23.1333 18.7999 25.0416C20.4707 27.4444 22.5561 29.5304 24.9583 31.202C26.8687 32.527 29.3166 31.877 30.5312 30.1749C30.7306 29.8952 31.0216 29.694 31.3537 29.6061C31.6858 29.5182 32.0382 29.5492 32.3499 29.6937L32.8104 29.9062C35.0562 30.9478 37.4395 31.6603 39.8874 32.0228C40.9083 32.1749 41.6666 33.052 41.6666 34.0853V39.5833C41.6666 39.857 41.6126 40.1281 41.5078 40.381C41.403 40.6339 41.2493 40.8636 41.0557 41.0571C40.862 41.2506 40.6321 41.404 40.3791 41.5086C40.1261 41.6132 39.855 41.6669 39.5812 41.6666H39.577Z" fill="#989898"/>
</svg>
