<svg width="56" height="56" viewBox="0 0 56 56" fill="none" xmlns="http://www.w3.org/2000/svg">
<path d="M28.0001 22.2134C26.8556 22.2134 25.7368 22.5528 24.7852 23.1886C23.8336 23.8245 23.0919 24.7282 22.6539 25.7856C22.2159 26.843 22.1013 28.0065 22.3246 29.129C22.5479 30.2515 23.099 31.2826 23.9083 32.0919C24.7176 32.9012 25.7487 33.4523 26.8712 33.6756C27.9937 33.8988 29.1572 33.7842 30.2145 33.3463C31.2719 32.9083 32.1757 32.1666 32.8115 31.215C33.4474 30.2634 33.7867 29.1446 33.7867 28.0001C33.7867 27.2402 33.6371 26.4877 33.3463 25.7856C33.0555 25.0835 32.6292 24.4456 32.0919 23.9083C31.5545 23.3709 30.9166 22.9447 30.2145 22.6539C29.5125 22.3631 28.76 22.2134 28.0001 22.2134ZM51.1701 16.4967C51.1578 14.6948 50.826 12.9094 50.1901 11.2234C49.7217 9.98969 48.9971 8.8693 48.064 7.93618C47.1309 7.00306 46.0105 6.27842 44.7767 5.81008C43.0907 5.17416 41.3053 4.84236 39.5034 4.83008C36.4934 4.66675 35.6067 4.66675 28.0001 4.66675C20.3934 4.66675 19.5067 4.66675 16.4967 4.83008C14.6948 4.84236 12.9094 5.17416 11.2234 5.81008C9.98969 6.27842 8.8693 7.00306 7.93618 7.93618C7.00306 8.8693 6.27842 9.98969 5.81008 11.2234C5.17416 12.9094 4.84236 14.6948 4.83008 16.4967C4.66675 19.5067 4.66675 20.3934 4.66675 28.0001C4.66675 35.6067 4.66675 36.4934 4.83008 39.5034C4.8552 41.3117 5.18655 43.1026 5.81008 44.8001C6.27635 46.0282 7.00038 47.1421 7.93341 48.0667C8.86253 49.0055 9.98532 49.7301 11.2234 50.1901C12.9094 50.826 14.6948 51.1578 16.4967 51.1701C19.5067 51.3334 20.3934 51.3334 28.0001 51.3334C35.6067 51.3334 36.4934 51.3334 39.5034 51.1701C41.3053 51.1578 43.0907 50.826 44.7767 50.1901C46.0148 49.7301 47.1376 49.0055 48.0667 48.0667C48.9998 47.1421 49.7238 46.0282 50.1901 44.8001C50.8254 43.1058 51.1571 41.3128 51.1701 39.5034C51.3334 36.4934 51.3334 35.6067 51.3334 28.0001C51.3334 20.3934 51.3334 19.5067 51.1701 16.4967ZM45.2434 35.1634C45.1685 36.6033 44.8612 38.0216 44.3334 39.3634C43.8804 40.4827 43.207 41.4994 42.3532 42.3532C41.4994 43.207 40.4827 43.8804 39.3634 44.3334C38.0089 44.8318 36.5827 45.1076 35.1401 45.1501H20.8601C19.4175 45.1076 17.9912 44.8318 16.6367 44.3334C15.4797 43.9034 14.4347 43.2174 13.5801 42.3267C12.7346 41.4897 12.0817 40.4784 11.6667 39.3634C11.1664 38.0104 10.8982 36.5825 10.8734 35.1401V20.8601C10.8982 19.4177 11.1664 17.9898 11.6667 16.6367C12.0967 15.4797 12.7827 14.4347 13.6734 13.5801C14.5142 12.7392 15.5244 12.087 16.6367 11.6667C17.9912 11.1684 19.4175 10.8926 20.8601 10.8501H35.1401C36.5827 10.8926 38.0089 11.1684 39.3634 11.6667C40.5205 12.0967 41.5654 12.7827 42.4201 13.6734C43.2655 14.5105 43.9184 15.5217 44.3334 16.6367C44.8318 17.9912 45.1076 19.4175 45.1501 20.8601V28.0001C45.1501 32.8067 45.3134 33.2967 45.2434 35.1401V35.1634ZM41.5101 17.8034C41.2323 17.0497 40.7943 16.3652 40.2262 15.7972C39.6582 15.2292 38.9738 14.7912 38.2201 14.5134C37.1852 14.1547 36.0952 13.9809 35.0001 14.0001H21.0001C19.8994 14.0108 18.8092 14.2162 17.7801 14.6067C17.0379 14.8719 16.3607 15.2921 15.7934 15.8392C15.2262 16.3864 14.7819 17.048 14.4901 17.7801C14.1512 18.8193 13.9857 19.9071 14.0001 21.0001V35.0001C14.0232 36.0995 14.2282 37.1876 14.6067 38.2201C14.8846 38.9738 15.3226 39.6582 15.8906 40.2262C16.4586 40.7943 17.143 41.2323 17.8967 41.5101C18.8923 41.8762 19.9399 42.081 21.0001 42.1167H35.0001C36.1008 42.106 37.1909 41.9006 38.2201 41.5101C38.9738 41.2323 39.6582 40.7943 40.2262 40.2262C40.7943 39.6582 41.2323 38.9738 41.5101 38.2201C41.9006 37.1909 42.106 36.1008 42.1167 35.0001V21.0001C42.1174 19.8983 41.9117 18.8061 41.5101 17.7801V17.8034ZM28.0001 36.9134C26.8307 36.9134 25.6727 36.6827 24.5926 36.2345C23.5125 35.7863 22.5315 35.1293 21.7056 34.3013C20.8798 33.4734 20.2255 32.4906 19.7801 31.4093C19.3347 30.328 19.107 29.1695 19.1101 28.0001C19.1101 26.2362 19.6334 24.512 20.6139 23.0457C21.5943 21.5794 22.9878 20.437 24.6178 19.763C26.2479 19.0891 28.0413 18.9139 29.7709 19.2598C31.5006 19.6056 33.0887 20.4568 34.3343 21.7057C35.58 22.9546 36.427 24.545 36.7683 26.2755C37.1096 28.0061 36.9298 29.799 36.2515 31.4273C35.5733 33.0555 34.4273 34.446 32.9584 35.4226C31.4895 36.3992 29.764 36.918 28.0001 36.9134ZM37.3334 20.8367C36.8176 20.7822 36.3403 20.5386 35.9933 20.153C35.6464 19.7674 35.4545 19.2671 35.4545 18.7484C35.4545 18.2297 35.6464 17.7294 35.9933 17.3438C36.3403 16.9582 36.8176 16.7147 37.3334 16.6601C37.8492 16.7147 38.3266 16.9582 38.6735 17.3438C39.0204 17.7294 39.2124 18.2297 39.2124 18.7484C39.2124 19.2671 39.0204 19.7674 38.6735 20.153C38.3266 20.5386 37.8492 20.7822 37.3334 20.8367Z" fill="#989898"/>
</svg>
