<svg width="56" height="56" viewBox="0 0 56 56" fill="none" xmlns="http://www.w3.org/2000/svg">
<path d="M51.3101 15.2764C51.2906 14.2754 51.2104 13.2764 51.0697 12.2851C50.9021 11.4033 50.6173 10.548 50.2227 9.74175C49.3591 8.03678 47.9745 6.65142 46.2701 5.78675C45.4691 5.39408 44.6192 5.11002 43.7431 4.94208C42.7442 4.79854 41.7374 4.71672 40.7284 4.69708C40.3014 4.68075 39.7484 4.67375 39.4917 4.67375L16.5131 4.66675C16.2564 4.66675 15.7034 4.67375 15.2764 4.69008C14.2753 4.70937 13.2764 4.78963 12.2851 4.93041C11.4033 5.09804 10.548 5.3829 9.74175 5.77741C8.03688 6.64122 6.65156 8.02572 5.78675 9.73008C5.39418 10.5311 5.11012 11.381 4.94208 12.2571C4.79789 13.2559 4.71529 14.2627 4.69475 15.2717C4.68075 15.6987 4.67141 16.2517 4.67141 16.5084L4.66675 39.4871C4.66675 39.7437 4.67375 40.2967 4.69008 40.7237C4.70937 41.7248 4.78963 42.7238 4.93041 43.7151C5.09807 44.5968 5.38293 45.4522 5.77741 46.2584C6.64122 47.9633 8.02572 49.3486 9.73008 50.2134C10.5312 50.6059 11.381 50.89 12.2571 51.0581C13.256 51.2016 14.2628 51.2835 15.2717 51.3031C15.6987 51.3194 16.2517 51.3264 16.5084 51.3264L39.4871 51.3311C39.7437 51.3311 40.2967 51.3241 40.7237 51.3077C41.7248 51.2884 42.7238 51.2081 43.7151 51.0674C44.5968 50.8997 45.4522 50.6148 46.2584 50.2204C47.9641 49.357 49.3503 47.9725 50.2157 46.2677C50.6084 45.4667 50.8924 44.6169 51.0604 43.7407C51.2047 42.7419 51.2873 41.7351 51.3077 40.7261C51.3217 40.2991 51.3311 39.7461 51.3311 39.4894L51.3334 16.5131C51.3334 16.2564 51.3264 15.7034 51.3101 15.2764ZM28.5064 44.2331H28.4994C25.722 44.2325 22.9889 43.5362 20.5497 42.2077L11.7297 44.5201L14.0911 35.9031C12.2628 32.7305 11.5323 29.0433 12.0128 25.4133C12.4933 21.7833 14.1579 18.4132 16.7487 15.8255C19.3394 13.2379 22.7115 11.5772 26.3421 11.101C29.9727 10.6248 33.659 11.3598 36.8294 13.1918C39.9998 15.0238 42.4772 17.8507 43.8776 21.234C45.2779 24.6174 45.523 28.3682 44.5747 31.9049C43.6264 35.4417 41.5377 38.5668 38.6326 40.7957C35.7274 43.0247 32.1681 44.2329 28.5064 44.2331Z" fill="#989898"/>
<path d="M28.5132 13.7692C26.0424 13.7685 23.6165 14.4297 21.4878 15.6841C19.3591 16.9385 17.6054 18.7403 16.4089 20.9022C15.2125 23.064 14.6171 25.5068 14.6846 27.9767C14.7521 30.4466 15.4801 32.8533 16.7928 34.9465L17.1218 35.4692L15.7242 40.5698L20.9578 39.1978L21.4618 39.4965C23.5924 40.7583 26.023 41.424 28.4992 41.4238H28.5062C32.1737 41.4245 35.6913 39.9681 38.2851 37.3752C40.8788 34.7823 42.3364 31.2652 42.337 27.5977C42.3376 23.9301 40.8813 20.4126 38.2884 17.8188C35.6955 15.225 32.1784 13.7675 28.5108 13.7668L28.5132 13.7692ZM36.6425 33.5325C36.3366 34.0376 35.9296 34.4739 35.4469 34.8141C34.9642 35.1542 34.4164 35.3907 33.8378 35.5088C32.9643 35.6587 32.0679 35.6027 31.2198 35.3455C30.4155 35.0949 29.625 34.802 28.8515 34.4682C25.9809 33.0276 23.534 30.8654 21.7512 28.1938C20.7786 26.9571 20.1882 25.4633 20.0525 23.8958C20.0413 23.2488 20.165 22.6066 20.4156 22.01C20.6663 21.4135 21.0385 20.8756 21.5085 20.4308C21.6474 20.2724 21.8175 20.1444 22.0083 20.0548C22.199 19.9653 22.4062 19.9162 22.6168 19.9105C22.8922 19.9105 23.1698 19.9105 23.4125 19.9245C23.6692 19.9362 24.0098 19.8265 24.3458 20.6385C24.6958 21.4692 25.5265 23.5155 25.6292 23.7232C25.6951 23.832 25.7328 23.9556 25.7389 24.0827C25.745 24.2099 25.7193 24.3365 25.6642 24.4512C25.5595 24.7008 25.4196 24.9342 25.2488 25.1442C25.0388 25.3868 24.8125 25.6855 24.6258 25.8722C24.4158 26.0798 24.2012 26.3038 24.4415 26.7192C25.0657 27.788 25.845 28.7583 26.7538 29.5985C27.74 30.4753 28.8715 31.1733 30.0975 31.6612C30.5128 31.8712 30.7555 31.8338 30.9982 31.5562C31.2408 31.2785 32.0365 30.3428 32.3142 29.9275C32.5918 29.5122 32.8672 29.5822 33.2475 29.7198C33.6278 29.8575 35.6742 30.8632 36.0895 31.0732C36.5048 31.2832 36.7825 31.3835 36.8852 31.5562C36.999 32.2245 36.9146 32.9116 36.6425 33.5325Z" fill="#989898"/>
</svg>
